#!OML:ASF F:\VICON\USERDATA\INSTALL\rory3\rory3.ASF
:FULLY-SPECIFIED
:DEGREES
47
root 0.558226 17.892 -22.6799 -2.2484 -3.71639 -6.90724
lowerback 11.3507 1.18463 5.48697
upperback 0.505492 2.43408 2.55533
thorax -5.72857 1.08237 -0.79299
lowerneck -15.9161 -3.54212 -1.86515
upperneck 17.5956 -4.65461 1.18638
head 8.15204 -2.21077 0.160396
rclavicle -2.41958e-014 -2.56432e-014
rhumerus -24.1663 -7.45176 -81.5876
rradius 31.5471
rwrist -2.08071
rhand -18.9225 22.4643
rfingers 7.12502
rthumb 7.37991 -7.38699
lclavicle -2.41958e-014 -2.56432e-014
lhumerus -35.5787 0.0745568 84.3889
lradius 27.8295
lwrist 5.73402
lhand -27.155 23.993
lfingers 7.12502
lthumb -0.569804 53.972
rfemur -1.48566 7.19453 34.5872
rtibia 29.0569
rfoot -20.0265 -8.96164
rtoes 7.15816
lfemur -29.5427 1.1365 -12.508
ltibia 43.9578
lfoot -6.64297 3.4469
ltoes -8.07634
48
root 0.556469 17.9007 -22.5119 -2.09507 -3.81899 -7.10159
lowerback 11.466 1.40189 5.7791
upperback 0.589397 2.75664 2.43439
thorax -5.66808 1.23395 -1.13531
lowerneck -16.8486 -3.67746 -1.54893
upperneck 17.918 -4.90343 1.14604
head 8.42038 -2.30136 0.0452528
rclavicle -5.29885e-015 -1.09332e-014
rhumerus -23.6265 -7.7511 -81.6839
rradius 31.7181
rwrist -2.17614
rhand -19.0257 22.7944
rfingers 7.12502
rthumb 7.28035 -7.06037
lclavicle -5.29885e-015 -1.09332e-014
lhumerus -35.3071 -0.265107 84.303
lradius 27.6858
lwrist 5.63803
lhand -26.8986 24.5943
lfingers 7.12502
lthumb -0.322129 54.5738
rfemur -0.741854 7.14129 34.7899
rtibia 28.4891
rfoot -20.1878 -8.8781
rtoes 6.57065
lfemur -29.3968 0.719838 -12.0485
ltibia 41.146
lfoot -6.63072 3.48451
ltoes -5.67937
49
root 0.557031 17.8933 -22.3364 -1.83098 -3.92122 -7.23513
lowerback 11.3054 1.50046 5.93062
upperback 0.460878 2.90074 2.42041
thorax -5.69781 1.29782 -1.25308
lowerneck -16.7436 -3.67019 -1.47075
upperneck 17.9997 -4.89454 1.04038
head 8.42415 -2.30311 -0.000509152
rclavicle 7.06307e-015 -4.87022e-015
rhumerus -23.471 -7.51836 -81.7137
rradius 31.8629
rwrist -2.0986
rhand -19.005 23.1823
rfingers 7.12502
rthumb 7.30032 -6.67181
lclavicle 7.06307e-015 -4.87022e-015
lhumerus -35.6634 -0.194726 84.2348
lradius 27.6184
lwrist 5.57117
lhand -26.5743 25.5632
lfingers 7.12502
lthumb -0.00892695 55.5429
rfemur -0.132374 7.16816 34.9321
rtibia 27.9765
rfoot -20.4057 -8.90117
rtoes 6.02219
lfemur -29.7471 0.332414 -11.7544
ltibia 37.9824
lfoot -5.73271 3.72401
ltoes -8.29295
50
root 0.558224 17.868 -22.1598 -1.59361 -4.07392 -7.35587
lowerback 11.0319 1.41943 5.81096
upperback 0.0600293 2.79582 2.67343
thorax -5.99504 1.2393 -0.9015
lowerneck -14.8832 -3.50515 -1.94348
upperneck 17.2823 -4.561 1.00105
head 7.86053 -2.1993 0.144371
rclavicle 7.31155e-015 -8.64713e-015
rhumerus -23.8967 -6.33264 -81.5818
rradius 31.8801
rwrist -2.09621
rhand -19.2098 23.6252
rfingers 7.12502
rthumb 7.10268 -6.23566
lclavicle 7.31155e-015 -8.64713e-015
lhumerus -36.8056 0.99898 84.0949
lradius 27.3807
lwrist 5.23565
lhand -26.4382 26.2175
lfingers 7.12502
lthumb 0.122565 56.1972
rfemur 0.595658 7.42618 35.1161
rtibia 27.3496
rfoot -20.5185 -9.02984
rtoes 6.1211
lfemur -29.5927 -0.178215 -11.3539
ltibia 35.0866
lfoot -5.63253 3.96289
ltoes -7.83943
51
root 0.56177 17.8476 -21.9877 -1.35498 -4.21243 -7.53967
lowerback 10.8825 1.63958 6.11257
upperback 0.385514 3.08591 2.56183
thorax -5.5277 1.38986 -1.21957
lowerneck -16.4127 -3.62883 -1.53567
upperneck 17.4821 -4.76636 0.809616
head 8.18496 -2.27698 -0.0393932
rclavicle 2.4171e-014 3.77691e-014
rhumerus -22.8179 -6.85281 -81.622
rradius 31.8493
rwrist -1.95774
rhand -19.2206 23.5937
rfingers 7.12502
rthumb 7.09222 -6.26746
lclavicle 2.4171e-014 3.77691e-014
lhumerus -35.9107 0.88765 84.037
lradius 26.8544
lwrist 5.39882
lhand -26.6715 25.3484
lfingers 7.12502
lthumb -0.102808 55.3282
rfemur 1.18108 7.66453 35.3511
rtibia 26.9816
rfoot -20.6114 -9.19652
rtoes 5.73949
lfemur -29.3758 -0.849018 -10.8041
ltibia 31.8423
lfoot -5.19606 4.17679
ltoes -5.88717
52
root 0.568564 17.8478 -21.8121 -1.13746 -4.21961 -7.65852
lowerback 10.6654 1.72825 6.31655
upperback 0.455257 3.20379 2.53625
thorax -5.31224 1.45007 -1.36688
lowerneck -17.0254 -3.60426 -1.64837
upperneck 17.9953 -4.7262 0.92049
head 8.47205 -2.24632 0.00362798
rclavicle 1.61202e-014 2.45499e-014
rhumerus -22.353 -6.91538 -81.5819
rradius 31.9328
rwrist -1.915
rhand -19.235 23.4321
rfingers 7.12502
rthumb 7.07829 -6.4295
lclavicle 1.61202e-014 2.45499e-014
lhumerus -35.7267 1.16126 83.9216
lradius 26.3915
lwrist 5.4732
lhand -26.8427 22.9295
lfingers 7.12502
lthumb -0.268154 52.9091
rfemur 1.84555 7.48939 35.4081
rtibia 26.5198
rfoot -20.8137 -9.07537
rtoes 4.98709
lfemur -29.1049 -1.55623 -10.3926
ltibia 28.8724
lfoot -5.17791 4.44728
ltoes -4.7199
53
root 0.57413 17.8097 -21.6284 -0.913149 -4.35486 -7.68731
lowerback 10.3869 1.84363 6.37636
upperback 0.388241 3.34168 2.49474
thorax -5.21164 1.51823 -1.45262
lowerneck -16.998 -3.52161 -1.78607
upperneck 18.4111 -4.62492 1.1062
head 8.61538 -2.1859 0.0972025
rclavicle -4.92613e-014 -1.22253e-014
rhumerus -22.1757 -6.77235 -81.5949
rradius 31.7833
rwrist -1.51994
rhand -19.9763 24.0362
rfingers 7.12502
rthumb 6.3627 -5.84828
lclavicle -4.92613e-014 -1.22253e-014
lhumerus -36.0613 1.36494 83.7719
lradius 26.1847
lwrist 5.39099
lhand -26.7788 20.4161
lfingers 7.12502
lthumb -0.206478 50.3957
rfemur 2.55088 7.57152 35.4362
rtibia 26.0541
rfoot -20.9653 -9.08084
rtoes 4.15456
lfemur -29.0395 -2.38992 -9.9582
ltibia 25.8046
lfoot -4.85544 5.19365
ltoes -5.58717
54
root 0.579344 17.804 -21.4494 -0.730059 -4.5496 -7.82224
lowerback 10.3094 1.95554 6.53042
upperback 0.240274 3.51072 2.48995
thorax -5.30391 1.59198 -1.56604
lowerneck -16.5622 -3.53093 -1.71524
upperneck 18.2154 -4.64571 1.04034
head 8.46788 -2.20226 0.0708039
rclavicle -2.63638e-014 -1.38652e-014
rhumerus -22.1571 -6.57954 -81.5868
rradius 31.8148
rwrist -1.21975
rhand -20.5911 23.9858
rfingers 7.12502
rthumb 5.7691 -5.91562
lclavicle -2.63638e-014 -1.38652e-014
lhumerus -36.6521 1.54966 83.6404
lradius 26.2079
lwrist 5.17329
lhand -26.4642 20.5248
lfingers 7.12502
lthumb 0.0974351 50.5045
rfemur 3.25408 7.63253 35.5507
rtibia 25.6493
rfoot -21.1096 -8.99907
rtoes 3.26841
lfemur -28.7198 -3.31286 -9.31546
ltibia 22.8864
lfoot -5.72229 6.15847
ltoes -1.68191
55
root 0.584127 17.7899 -21.2714 -0.647468 -4.70474 -7.96343
lowerback 10.4331 2.00087 6.64573
upperback 0.0744734 3.60847 2.52254
thorax -5.53765 1.62654 -1.61871
lowerneck -15.9071 -3.57134 -1.62758
upperneck 17.6951 -4.6865 0.859719
head 8.16961 -2.24226 0.00889402
rclavicle -8.35517e-015 -4.11484e-014
rhumerus -22.2979 -6.39348 -81.564
rradius 32.0872
rwrist -1.15477
rhand -20.2544 23.8673
rfingers 7.12502
rthumb 6.09417 -6.02504
lclavicle -8.35517e-015 -4.11484e-014
lhumerus -37.2364 1.89055 83.4871
lradius 26.182
lwrist 4.99976
lhand -26.5259 22.3123
lfingers 7.12502
lthumb 0.0378298 52.292
rfemur 4.03914 7.54421 35.654
rtibia 25.2519
rfoot -21.3275 -8.7678
rtoes 2.91265
lfemur -28.1877 -4.5165 -8.57369
ltibia 19.8565
lfoot -6.36143 7.3589
ltoes -4.86896
